<?xml version="1.0" encoding="utf-8"?>
<!-- Generator: Adobe Illustrator 16.0.0, SVG Export Plug-In . SVG Version: 6.00 Build 0)  -->
<!DOCTYPE svg PUBLIC "-//W3C//DTD SVG 1.1//EN" "http://www.w3.org/Graphics/SVG/1.1/DTD/svg11.dtd">
<svg version="1.1" id="Layer_1" xmlns="http://www.w3.org/2000/svg" xmlns:xlink="http://www.w3.org/1999/xlink" x="0px" y="0px"
	 width="109.753px" height="99.814px" viewBox="0 0 109.753 99.814" enable-background="new 0 0 109.753 99.814"
	 xml:space="preserve">
<path fill="none" stroke="#D08692" stroke-width="2" stroke-miterlimit="10" d="M56.5,45"/>
<g>
	<path fill="none" stroke="#D08692" stroke-width="2" stroke-miterlimit="10" d="M84.55,40.907c0.863,2.849,1.326,5.87,1.326,9
		c0,17.121-13.879,31-31,31c-17.121,0-31-13.879-31-31s13.879-31,31-31c3.499,0,6.862,0.58,10,1.647"/>
	<path fill="none" stroke="#D08692" stroke-width="2" stroke-miterlimit="10" d="M47.414,54.713
		c-1.697-2.124-2.961-4.555-2.961-6.886c0-7.404,9.316-8.103,10.964-1.191c0.023,0.105,0.467,0.116,0.496,0
		c1.648-6.9,10.963-6.303,10.963,1.191c0,6.191-8.905,13.08-11.211,13.08c-0.59,0-1.607-0.449-2.802-1.223"/>
</g>
</svg>
