<?xml version="1.0" encoding="utf-8"?>
<!-- Generator: Adobe Illustrator 16.0.0, SVG Export Plug-In . SVG Version: 6.00 Build 0)  -->
<!DOCTYPE svg PUBLIC "-//W3C//DTD SVG 1.1//EN" "http://www.w3.org/Graphics/SVG/1.1/DTD/svg11.dtd">
<svg version="1.1" id="Layer_1" xmlns="http://www.w3.org/2000/svg" xmlns:xlink="http://www.w3.org/1999/xlink" x="0px" y="0px"
	 width="459.523px" height="173.491px" viewBox="0 0 459.523 173.491" enable-background="new 0 0 459.523 173.491"
	 xml:space="preserve">
<path fill="#78ADB5" d="M0,87.161c0,0,1.157-2.729,3.528-7.752c2.392-5.012,6.024-12.307,11.107-21.358
	c2.538-4.527,5.496-9.461,8.912-14.712c3.418-5.25,7.292-10.826,11.824-16.51c2.266-2.841,4.703-5.703,7.367-8.523
	c2.652-2.829,5.554-5.598,8.773-8.19c3.221-2.583,6.77-5.003,10.792-6.87c2.006-0.936,4.145-1.703,6.395-2.215
	c2.232-0.512,4.645-0.76,6.971-0.617l1.667,0.066c0.551,0.014,1.167,0.119,1.75,0.177l1.778,0.21
	c0.585,0.093,1.156,0.221,1.737,0.332c0.578,0.119,1.163,0.219,1.739,0.357l1.718,0.479c1.16,0.287,2.273,0.73,3.406,1.139
	c0.57,0.191,1.126,0.422,1.672,0.682l1.654,0.746c1.095,0.518,2.146,1.133,3.226,1.702c1.024,0.655,2.084,1.276,3.092,1.974
	c0.982,0.732,2.028,1.396,2.966,2.197c3.876,3.059,7.371,6.655,10.574,10.538c3.199,3.892,6.134,8.063,8.833,12.44
	c5.407,8.758,10.034,18.218,14.369,28.009c4.348,9.79,8.44,19.914,12.648,30.172c4.221,10.252,8.508,20.676,13.517,30.906
	c2.488,5.121,5.164,10.189,8.119,15.121c2.966,4.919,6.13,9.774,9.842,14.216c3.692,4.441,7.782,8.619,12.514,11.964
	c1.154,0.876,2.404,1.605,3.626,2.379c0.623,0.367,1.271,0.689,1.904,1.036l0.956,0.513l0.99,0.443
	c2.607,1.256,5.387,2.112,8.201,2.755c2.809,0.65,5.759,0.816,8.586,0.872l2.212-0.099c0.367-0.02,0.742-0.023,1.102-0.058
	l1.065-0.133c0.709-0.098,1.419-0.156,2.127-0.282l2.122-0.432c2.802-0.679,5.572-1.552,8.163-2.837l0.983-0.453l0.95-0.521
	c0.63-0.354,1.276-0.677,1.893-1.057c1.217-0.784,2.455-1.528,3.604-2.417c4.699-3.399,8.753-7.645,12.424-12.159
	c3.665-4.532,6.87-9.438,9.852-14.454c5.976-10.045,10.944-20.647,15.639-31.264c4.69-10.626,9.126-21.291,13.674-31.785
	c4.556-10.489,9.226-20.82,14.548-30.674c5.319-9.832,11.342-19.24,18.939-27.195c3.817-3.943,8.079-7.465,12.795-10.219
	c4.725-2.73,9.947-4.544,15.232-5.346c1.323-0.18,2.652-0.299,3.973-0.396l1.981-0.038l0.988-0.02
	c0.013-0.002,0.26-0.002,0.32,0.004l0.235,0.014l0.469,0.027c0.634,0.043,1.232,0.055,1.893,0.125l2.023,0.262
	c0.678,0.083,1.297,0.248,1.946,0.369c0.645,0.121,1.28,0.268,1.903,0.454c5.045,1.323,9.624,3.623,13.778,6.271
	c8.269,5.413,14.963,12.141,20.789,18.951c5.821,6.837,10.794,13.838,15.223,20.66c4.445,6.818,8.267,13.518,11.722,19.874
	c6.867,12.739,12.207,24.159,16.316,33.681c4.104,9.524,7.066,17.111,9.012,22.312c1.934,5.204,2.875,8.015,2.875,8.015
	l-0.375,0.134c0,0-1.055-2.761-3.202-7.871c-2.138-5.112-5.339-12.588-9.755-21.936c-4.435-9.335-9.961-20.615-17.119-33.081
	c-3.569-6.235-7.581-12.743-12.045-19.429c-4.479-6.673-9.485-13.493-15.274-20.086c-5.784-6.565-12.398-12.97-20.25-17.935
	c-3.943-2.41-8.181-4.5-12.719-5.65c-0.562-0.167-1.132-0.294-1.708-0.396c-0.568-0.1-1.155-0.254-1.714-0.314l-1.686-0.213
	c-0.581-0.062-1.235-0.07-1.853-0.108l-0.47-0.024l-0.234-0.012c-0.098-0.008-0.005,0.006-0.15,0.004l-0.896,0.024l-1.797,0.046
	c-1.194,0.098-2.394,0.213-3.585,0.382c-4.757,0.763-9.427,2.411-13.719,4.929c-4.293,2.521-8.265,5.766-11.871,9.486
	c-7.188,7.507-13.051,16.633-18.379,26.221c-10.6,19.292-18.934,40.694-28.642,61.922c-4.88,10.605-10.053,21.236-16.286,31.369
	c-3.146,5.042-6.533,9.976-10.407,14.552c-3.88,4.557-8.168,8.854-13.147,12.29c-1.214,0.899-2.525,1.658-3.813,2.447
	c-0.651,0.385-1.336,0.711-2.002,1.068l-1.005,0.524l-1.04,0.456c-2.741,1.289-5.666,2.153-8.612,2.803l-2.229,0.408
	c-0.748,0.119-1.514,0.17-2.269,0.255l-1.136,0.115c-0.375,0.028-0.74,0.024-1.11,0.037l-2.214,0.056l-2.284-0.11l-1.125-0.059
	l-1.119-0.145c-0.744-0.103-1.492-0.18-2.232-0.303l-2.205-0.458c-2.916-0.689-5.792-1.602-8.479-2.918l-1.019-0.466l-0.983-0.535
	c-0.651-0.363-1.317-0.702-1.956-1.084c-1.253-0.805-2.535-1.567-3.712-2.474c-4.833-3.471-8.963-7.756-12.673-12.286
	c-7.395-9.121-13.083-19.307-18.282-29.483c-5.142-10.225-9.752-20.541-14.215-30.701c-8.918-20.293-17.315-40.099-28.002-57.166
	c-5.351-8.482-11.418-16.238-18.657-22.055c-7.171-5.897-15.79-9.203-24.346-9.461c-4.151-0.277-8.18,0.727-11.892,2.39
	s-7.104,3.899-10.217,6.333c-6.208,4.92-11.441,10.49-16.029,15.964C28.219,39.482,21.5,50.122,16.074,58.896
	C10.691,67.713,6.829,74.869,4.24,79.767c-2.599,4.895-3.878,7.559-3.878,7.559L0,87.161z"/>
<path fill="#C9C372" d="M459.532,108.951c0,0-0.005,0.132-0.015,0.396c0.005,0.253-0.06,0.679-0.177,1.203
	c-0.251,1.036-0.854,2.518-1.988,4.212c-2.278,3.371-6.453,7.759-12.912,11.799c-1.627,0.987-3.393,1.972-5.385,2.749
	c-1.985,0.765-4.166,1.471-6.657,1.481c-1.126,0.003-2.275,0.006-3.447,0.01c-1.191-0.061-2.443-0.239-3.701-0.362
	c-1.283-0.084-2.49-0.438-3.764-0.682c-0.633-0.136-1.27-0.272-1.912-0.41c-0.627-0.191-1.258-0.385-1.896-0.578
	c-5.093-1.545-10.324-3.806-15.423-6.821c-5.121-2.979-10.249-6.496-15.387-10.405c-10.271-7.844-20.575-17.224-31.461-27.045
	c-10.916-9.747-22.217-20.383-35.733-28.742c-3.355-2.118-6.923-3.912-10.586-5.558c-0.938-0.356-1.876-0.715-2.815-1.071
	l-1.415-0.536l-1.454-0.407l-2.919-0.809l-2.987-0.537c-0.5-0.074-0.995-0.213-1.502-0.235l-1.518-0.109l-1.521-0.108l-0.762-0.055
	c-0.183-0.026-0.496,0.01-0.737,0.015l-3.111,0.145c-0.525,0.005-1.029,0.075-1.529,0.162l-1.512,0.229
	c-2.024,0.219-4.019,0.823-6.029,1.295c-0.999,0.268-1.973,0.637-2.96,0.961c-0.98,0.341-1.973,0.654-2.922,1.093
	c-7.715,3.175-14.976,7.562-21.887,12.454c-6.878,4.96-13.457,10.382-19.939,15.921c-6.47,5.557-12.834,11.251-19.263,16.846
	c-6.458,5.561-12.971,11.039-19.729,16.152c-6.774,5.084-13.839,9.77-21.382,13.52c-7.495,3.781-15.721,6.382-24.165,6.637
	l-0.393,0.023l-0.197,0.012l-0.299-0.012l-0.749-0.036l-1.495-0.072c-1.002-0.059-1.963-0.049-3.042-0.253
	c-1.053-0.161-2.103-0.321-3.151-0.48c-1.043-0.175-2.005-0.491-3.008-0.73c-2.01-0.443-3.895-1.196-5.804-1.853
	c-0.967-0.304-1.852-0.774-2.777-1.153c-0.91-0.41-1.838-0.783-2.726-1.22c-7.125-3.484-13.477-7.847-19.359-12.362
	c-11.766-9.059-21.811-18.702-31.323-27.249c-9.481-8.584-18.378-16.173-26.751-22.232c-8.329-6.129-16.295-10.414-23.137-13.223
	c-6.859-2.798-12.61-3.996-16.551-4.518c-0.979-0.2-1.861-0.2-2.616-0.274c-0.758-0.058-1.611-0.105-2.124-0.144
	c-1.029-0.078-1.774-0.118-1.774-0.118v-0.397c0,0,0.75,0.008,1.788,0.025c0.52,0.009,1.272,0.02,2.039,0.033
	c0.767,0.03,1.717-0.021,2.715,0.123c4.011,0.319,9.934,1.271,17.061,3.787c7.117,2.514,15.383,6.69,24.056,12.593
	C56.164,67.832,65.306,75.364,75,83.771c4.834,4.199,9.874,8.575,15.086,13.104c5.234,4.474,10.643,9.084,16.449,13.444
	c5.807,4.346,11.986,8.513,18.706,11.843c0.84,0.415,1.708,0.762,2.564,1.149c0.865,0.355,1.704,0.807,2.6,1.085
	c1.772,0.608,3.531,1.32,5.37,1.723c0.909,0.217,1.83,0.521,2.734,0.671c0.903,0.151,1.809,0.303,2.716,0.456
	c0.871,0.2,1.908,0.208,2.895,0.277l1.494,0.09l0.749,0.045c0.013,0.002,0.236,0.011,0.075,0.008l0.178-0.01l0.356-0.018
	c7.609-0.142,15.319-2.417,22.552-5.965c7.275-3.493,14.209-8.016,20.973-12.89c6.759-4.898,13.339-10.203,19.89-15.611
	c6.577-5.38,13.128-10.873,19.791-16.245c6.653-5.38,13.422-10.646,20.48-15.462c7.017-4.86,14.403-9.229,22.283-12.382
	c0.969-0.434,1.983-0.745,2.987-1.082c1.01-0.32,1.993-0.715,3.014-0.992c2.06-0.5,4.074-1.128,6.201-1.375l1.576-0.248
	c0.525-0.092,1.05-0.166,1.567-0.174l3.108-0.167c0.275-0.006,0.479-0.044,0.813-0.028l0.788,0.04l1.575,0.08l1.574,0.081
	c0.526,0.014,1.037,0.145,1.556,0.212l3.1,0.491c1.013,0.241,2.019,0.516,3.025,0.771l1.509,0.392l1.468,0.503
	c0.98,0.336,1.958,0.671,2.934,1.006c3.81,1.556,7.532,3.275,11.024,5.316c7.04,3.997,13.491,8.66,19.596,13.428
	c3.049,2.392,6.022,4.809,8.914,7.242c2.879,2.446,5.696,4.893,8.458,7.317c5.483,4.872,10.816,9.612,15.976,14.197
	c5.157,4.564,10.213,8.876,15.23,12.776c9.979,7.827,19.851,14.214,29.528,17.418c0.602,0.207,1.198,0.41,1.79,0.613
	c0.606,0.149,1.205,0.297,1.8,0.443c1.19,0.266,2.364,0.65,3.514,0.754c1.158,0.146,2.269,0.355,3.412,0.454
	c1.172,0.033,2.32,0.067,3.446,0.099c2.03,0.068,4.081-0.491,5.946-1.151c1.876-0.677,3.625-1.5,5.231-2.383
	c6.428-3.578,10.731-7.696,13.099-10.814c1.2-1.563,1.859-2.932,2.158-3.885c0.138-0.477,0.222-0.825,0.236-1.099
	c0.027-0.263,0.04-0.396,0.04-0.396L459.532,108.951z"/>
</svg>
