<?xml version="1.0" encoding="utf-8"?>
<!-- Generator: Adobe Illustrator 16.0.0, SVG Export Plug-In . SVG Version: 6.00 Build 0)  -->
<!DOCTYPE svg PUBLIC "-//W3C//DTD SVG 1.1//EN" "http://www.w3.org/Graphics/SVG/1.1/DTD/svg11.dtd">
<svg version="1.1" id="Layer_1" xmlns="http://www.w3.org/2000/svg" xmlns:xlink="http://www.w3.org/1999/xlink" x="0px" y="0px"
	 width="110px" height="100px" viewBox="0 0 110 100" enable-background="new 0 0 110 100" xml:space="preserve">
<g>
	<path fill="none" stroke="#4C4C4C" stroke-width="2" stroke-miterlimit="10" d="M30.643,21.588
		c5.914-2.415,10.978,0.874,12.949,5.435c1.062,2.456,1.055,5.296-0.021,7.792c-0.664,1.544-1.982,3.522-4.569,5.023
		c1.269,1.773,1.913,4.052,1.669,6.239c-0.307,2.746-1.943,4.954-4.489,6.054l-8.22,3.554c-2.342,1.013-4.804,2.984-3.228,6.629
		l1.812,4.189"/>
	
		<rect x="56.213" y="27.801" transform="matrix(-0.3969 -0.9178 0.9178 -0.3969 31.406 138.456)" fill="none" stroke="#4C4C4C" stroke-width="2" stroke-miterlimit="10" width="9.952" height="62.219"/>
	<line fill="none" stroke="#4C4C4C" stroke-width="2" stroke-miterlimit="10" x1="27.077" y1="68.238" x2="31.026" y2="77.373"/>
	<line fill="none" stroke="#4C4C4C" stroke-width="2" stroke-miterlimit="10" x1="22.79" y1="70.093" x2="26.739" y2="79.227"/>
	<path fill="none" stroke="#4C4C4C" stroke-width="2" stroke-miterlimit="10" d="M22.097,68.426l-2.434-5.627
		c-2.83-6.547-1.604-16.867,6.412-20.334l-0.095-0.043c-2.555-0.927-4.629-2.868-5.69-5.323c-1.973-4.562-0.9-10.501,4.911-13.157"
		/>
</g>
</svg>
