<?xml version="1.0" standalone="no"?>
<!DOCTYPE svg PUBLIC "-//W3C//DTD SVG 20010904//EN"
 "http://www.w3.org/TR/2001/REC-SVG-20010904/DTD/svg10.dtd">
<svg version="1.0" xmlns="http://www.w3.org/2000/svg"
 width="920.000000pt" height="920.000000pt" viewBox="0 0 920.000000 920.000000"
 preserveAspectRatio="xMidYMid meet">
<metadata>
Created by potrace 1.11, written by Peter Selinger 2001-2013
</metadata>
<g transform="translate(0.000000,920.000000) scale(0.100000,-0.100000)"
fill="#000000" stroke="none">
<path d="M1308 8038 c-2 -7 -3 -1559 -2 -3448 l0 -3435 1465 -3 1464 -2 0
3447 0 3448 -1461 3 c-1165 2 -1463 0 -1466 -10z"/>
<path d="M4969 5363 c-1 -5 -2 -954 -3 -2110 l-1 -2103 1461 0 c1384 0 1462 1
1465 18 3 14 3 4168 0 4195 -1 4 -658 7 -1461 7 -803 0 -1461 -3 -1461 -7z"/>
</g>
</svg>
