<?xml version="1.0" encoding="utf-8"?>
<!-- Generator: Adobe Illustrator 16.0.0, SVG Export Plug-In . SVG Version: 6.00 Build 0)  -->
<!DOCTYPE svg PUBLIC "-//W3C//DTD SVG 1.1//EN" "http://www.w3.org/Graphics/SVG/1.1/DTD/svg11.dtd">
<svg version="1.1" id="Layer_1" xmlns="http://www.w3.org/2000/svg" xmlns:xlink="http://www.w3.org/1999/xlink" x="0px" y="0px"
	 width="109.753px" height="99.814px" viewBox="0 0 109.753 99.814" enable-background="new 0 0 109.753 99.814"
	 xml:space="preserve">
<path fill="none" stroke="#78ADB5" stroke-width="2" stroke-miterlimit="10" d="M54.876,49.907"/>
<g>
	<g>
		<g>
			<g>
				<path fill="none" stroke="#78ADB5" stroke-width="2" stroke-miterlimit="10" d="M24.87,56.861v-5.238
					c0-1.646,6.082-0.863,6.082-5.922c0.146-0.226,0.314-0.507,0.48-0.785c-0.143-0.06-0.277-0.129-0.412-0.205
					c-1.004-0.576-1.64-1.524-1.742-2.599c-0.133-1.388,0.59-2.771,2.149-4.12c1.673-1.447,3.248-2.212,5.271-2.562
					c1.14-0.194,2.371-0.226,3.562-0.122c4.255-2.529,9.421-3.662,15.802-3.336c9.119,0.468,17.154,4.938,21.291,11.762
					c2.621,0.561,7.518,2.063,7.518,5.422c0,2.356-1.812,4.325-4.623,5.229c-0.113,8.359-3.139,14.308-9.008,17.707
					c-0.123,1.222-0.523,2.793-1.662,4.027c-0.738,0.799-2.068,1.75-4.229,1.75c-0.887,0-2.035-0.313-4.164-0.918
					c-2.254-0.641-5.338-1.516-7.18-1.516c-1.748,0-3.947,0.812-5.718,1.463c-1.522,0.565-2.625,0.971-3.633,0.971
					c-2.639,0-4.891-1.967-5.661-4.715c-4.902-1.945-7.294-4.703-10.026-7.855"/>
			</g>
		</g>
		<path fill="none" stroke="#78ADB5" stroke-width="2" stroke-miterlimit="10" d="M44.837,48.917c0,2.185-1.785,3.959-3.984,3.959
			c-2.203,0-3.988-1.774-3.988-3.959c0-2.186,1.785-3.956,3.988-3.956"/>
		<path fill="none" stroke="#78ADB5" stroke-width="2" stroke-miterlimit="10" d="M63.833,39.721
			c3.438,1.343,6.15,2.441,7.914,5.474"/>
	</g>
	<path fill="none" stroke="#78ADB5" stroke-width="2" stroke-miterlimit="10" d="M72.863,27.957c0-3.318,2.691-6.011,6.012-6.011
		c3.314,0,6.01,2.688,6.01,6.011c0,1.085-0.288,2.104-0.791,2.98c-1.036,1.811-2.985,3.026-5.219,3.026"/>
</g>
</svg>
