<?xml version="1.0" encoding="utf-8"?>
<!-- Generator: Adobe Illustrator 16.0.0, SVG Export Plug-In . SVG Version: 6.00 Build 0)  -->
<!DOCTYPE svg PUBLIC "-//W3C//DTD SVG 1.1//EN" "http://www.w3.org/Graphics/SVG/1.1/DTD/svg11.dtd">
<svg version="1.1" id="Layer_1" xmlns="http://www.w3.org/2000/svg" xmlns:xlink="http://www.w3.org/1999/xlink" x="0px" y="0px"
	 width="110px" height="100px" viewBox="0 0 110 100" enable-background="new 0 0 110 100" xml:space="preserve">
<path fill="#94C889" d="M-42.667,63.722h-8h-61c-1.104,0-1-0.104-1,1v14c0,1.104-0.104,1,1,1h61h8c1.104,0,1,0.104,1-1v-14
	C-41.667,63.617-41.563,63.722-42.667,63.722 M-110.667,65.722h59v12h-59V65.722z M-43.667,77.722h-6v-12h6V77.722z"/>
<path fill="#94C889" d="M-34.333,25.43c-0.642-0.519-1.304-1.011-1.96-1.499c-4.447-3.299-7.66-5.682-1.451-16.516
	c0.021-0.039,0.034-0.08,0.053-0.12c0.036-0.073,0.073-0.145,0.1-0.221c0.021-0.061,0.032-0.123,0.048-0.185
	c0.015-0.064,0.033-0.126,0.042-0.191c0.01-0.066,0.01-0.133,0.012-0.199c0.003-0.063,0.008-0.125,0.005-0.189
	c-0.004-0.068-0.017-0.135-0.028-0.203c-0.01-0.06-0.016-0.12-0.03-0.179c-0.021-0.082-0.052-0.159-0.083-0.237
	c-0.016-0.039-0.023-0.079-0.041-0.117c-0.002-0.005-0.006-0.009-0.008-0.015c-0.04-0.084-0.093-0.162-0.145-0.24
	c-0.021-0.033-0.038-0.069-0.061-0.1c-0.043-0.057-0.098-0.108-0.147-0.16c-0.04-0.043-0.076-0.091-0.12-0.129
	c-0.039-0.035-0.086-0.063-0.128-0.095c-0.062-0.047-0.123-0.097-0.19-0.137c-0.008-0.003-0.013-0.009-0.019-0.013
	c-0.052-0.029-0.106-0.047-0.16-0.071c-0.058-0.027-0.114-0.057-0.175-0.078c-0.076-0.027-0.152-0.043-0.229-0.06
	c-0.05-0.01-0.097-0.025-0.146-0.032c-0.08-0.011-0.161-0.013-0.241-0.014c-0.05-0.001-0.098-0.006-0.146-0.004
	c-0.082,0.005-0.162,0.019-0.242,0.033c-0.048,0.009-0.095,0.013-0.142,0.025c-0.094,0.023-0.184,0.058-0.271,0.094
	c-0.029,0.012-0.059,0.018-0.088,0.031c-0.007,0.003-0.014,0.007-0.021,0.01c-0.011,0.006-0.021,0.011-0.032,0.017
	c-8.603,4.036-11.191,9.261-11.845,12.937c-0.824,4.649,0.959,9.717,4.771,13.554c0.307,0.308,0.631,0.629,0.966,0.961
	c3.239,3.201,7.271,7.185,7.143,11.936c-0.085,3.16-2.074,6.488-5.911,9.893c-0.015,0.013-0.024,0.028-0.037,0.041
	c-0.057,0.053-0.105,0.109-0.154,0.168c-0.038,0.044-0.076,0.086-0.109,0.133c-0.039,0.056-0.072,0.115-0.106,0.175
	c-0.03,0.054-0.062,0.106-0.087,0.163c-0.027,0.06-0.046,0.122-0.067,0.184c-0.02,0.061-0.042,0.118-0.056,0.178
	c-0.016,0.065-0.022,0.132-0.03,0.198c-0.008,0.061-0.018,0.12-0.02,0.182c-0.003,0.064,0.003,0.13,0.006,0.194
	c0.004,0.066,0.007,0.131,0.017,0.196c0.01,0.058,0.026,0.114,0.04,0.172c0.02,0.073,0.037,0.145,0.064,0.215
	c0.007,0.019,0.009,0.036,0.016,0.055c0.009,0.021,0.025,0.035,0.034,0.057c0.062,0.141,0.143,0.276,0.241,0.403
	c0.02,0.025,0.037,0.055,0.058,0.08c0.009,0.01,0.014,0.021,0.022,0.03c0.11,0.125,0.235,0.229,0.366,0.318
	c0.035,0.024,0.072,0.041,0.108,0.062c0.118,0.071,0.24,0.129,0.368,0.172c0.048,0.018,0.094,0.033,0.142,0.047
	c0.161,0.043,0.324,0.07,0.49,0.072c0.008,0,0.015,0.004,0.022,0.004c0.039,0,0.08-0.01,0.119-0.013
	c0.082-0.005,0.163-0.009,0.244-0.022c0.038-0.009,0.076-0.022,0.114-0.032c0.085-0.021,0.17-0.043,0.252-0.075
	c0.008-0.003,0.017-0.004,0.025-0.008c12.194-4.975,15.55-11.394,16.217-15.9C-26.132,35.801-28.891,29.844-34.333,25.43
	 M-30.914,40.777c-0.443,2.993-2.345,5.78-5.575,8.262c0.713-1.631,1.098-3.268,1.143-4.907c0.175-6.485-4.741-11.342-8.33-14.89
	c-0.326-0.322-0.642-0.634-0.939-0.934c-2.896-2.915-4.268-6.667-3.67-10.036c0.424-2.387,1.82-4.599,4.096-6.557
	c-2.888,8.218,0.648,11.82,5.513,15.429c0.611,0.452,1.228,0.909,1.824,1.394C-32.519,32.051-30.298,36.627-30.914,40.777"/>
<g>
	<path fill="none" stroke="#D8D8D8" stroke-width="2" stroke-miterlimit="10" d="M30.473,21.39c5.956-2.431,11.054,0.88,13.04,5.473
		c1.068,2.474,1.062,5.333-0.021,7.846c-0.669,1.555-1.997,3.547-4.602,5.058c1.277,1.786,1.926,4.08,1.681,6.282
		c-0.309,2.766-1.957,4.988-4.521,6.097l-8.277,3.578c-2.358,1.02-4.837,3.006-3.25,6.674l1.825,4.22"/>
	
		<rect x="56.221" y="27.646" transform="matrix(-0.3969 -0.9179 0.9179 -0.3969 31.4065 138.5815)" fill="none" stroke="#D8D8D8" stroke-width="2" stroke-miterlimit="10" width="10.021" height="62.653"/>
	<line fill="none" stroke="#D8D8D8" stroke-width="2" stroke-miterlimit="10" x1="26.882" y1="68.366" x2="30.859" y2="77.563"/>
	<line fill="none" stroke="#D8D8D8" stroke-width="2" stroke-miterlimit="10" x1="22.565" y1="70.232" x2="26.542" y2="79.431"/>
	<path fill="none" stroke="#D8D8D8" stroke-width="2" stroke-miterlimit="10" d="M21.867,68.555l-2.45-5.667
		c-2.85-6.592-1.617-16.984,6.457-20.476l-0.096-0.044c-2.573-0.933-4.661-2.887-5.73-5.359c-1.986-4.594-0.906-10.575,4.945-13.249
		"/>
</g>
</svg>
